<svg xmlns="http://www.w3.org/2000/svg" xmlns:xlink="http://www.w3.org/1999/xlink" viewBox="0 0 200.11 100.97"><defs><style>.cls-1{fill:none;}.cls-2{clip-path:url(#clip-path);}.cls-3{fill:#ff931e;}.cls-4{fill:#8cc63f;}.cls-5{fill:#e6e6e6;}.cls-6{font-size:36.24px;font-family:Rockwell;}.cls-6,.cls-7{fill:#f2f2f2;}.cls-7{font-size:17.15px;font-family:GillSansMT, Gill Sans MT;}.cls-8{letter-spacing:-0.12em;}.cls-9{letter-spacing:-0.04em;}</style><clipPath id="clip-path" transform="translate(-36.3 -38.66)"><rect class="cls-1" width="329.98" height="185.53"/></clipPath></defs><title>Asset 13</title><g id="Layer_2" data-name="Layer 2"><g id="Layer_1-2" data-name="Layer 1"><g class="cls-2"><g class="cls-2"><path class="cls-3" d="M81.57,89a1.4,1.4,0,0,1-1.29,0L37.11,64c-.36-.21-.37-.54,0-.75L79.47,38.81a1.4,1.4,0,0,1,1.29,0l43.17,24.92c.36.21.37.54,0,.75Z" transform="translate(-36.3 -38.66)"/><path d="M81.55,87.45a1.42,1.42,0,0,1-1.3,0l-11.77-6.8c-.36-.21-.37-.54,0-.75L80,73.23a1.45,1.45,0,0,1,1.3,0L93.09,80c.36.21.37.55,0,.75Z" transform="translate(-36.3 -38.66)"/><path d="M67.16,79.15a1.45,1.45,0,0,1-1.3,0l-11.77-6.8c-.36-.21-.37-.54,0-.75l11.55-6.67a1.45,1.45,0,0,1,1.3,0l11.77,6.8a.4.4,0,0,1,0,.75Z" transform="translate(-36.3 -38.66)"/><path d="M52.77,70.84a1.45,1.45,0,0,1-1.3,0L39.7,64c-.36-.2-.37-.54,0-.74l11.55-6.68a1.45,1.45,0,0,1,1.3,0l11.77,6.8c.36.21.37.54,0,.75Z" transform="translate(-36.3 -38.66)"/><path d="M95.67,79.3a1.43,1.43,0,0,1-1.29,0L82.6,72.5c-.36-.21-.36-.55,0-.75l11.56-6.67a1.43,1.43,0,0,1,1.29,0l11.78,6.8c.36.21.36.54,0,.75Z" transform="translate(-36.3 -38.66)"/><path d="M81.28,71A1.43,1.43,0,0,1,80,71l-11.78-6.8c-.36-.21-.36-.55,0-.75l11.56-6.67a1.43,1.43,0,0,1,1.29,0l11.78,6.8c.36.21.36.55,0,.75Z" transform="translate(-36.3 -38.66)"/><path d="M66.89,62.68a1.4,1.4,0,0,1-1.29,0l-11.78-6.8c-.36-.21-.36-.54,0-.75l11.56-6.67a1.43,1.43,0,0,1,1.29,0l11.78,6.79c.36.21.36.55,0,.75Z" transform="translate(-36.3 -38.66)"/><path d="M109.8,71.15a1.45,1.45,0,0,1-1.3,0l-11.77-6.8c-.36-.21-.37-.54,0-.75l11.56-6.67a1.45,1.45,0,0,1,1.3,0l11.77,6.8c.36.2.37.54,0,.74Z" transform="translate(-36.3 -38.66)"/><path d="M95.41,62.84a1.45,1.45,0,0,1-1.3,0L82.34,56c-.36-.2-.37-.54,0-.74l11.56-6.68a1.45,1.45,0,0,1,1.3,0L107,55.42c.36.21.37.54,0,.75Z" transform="translate(-36.3 -38.66)"/><path d="M81,54.53a1.45,1.45,0,0,1-1.3,0L68,47.73c-.36-.21-.37-.55,0-.75l11.56-6.67a1.42,1.42,0,0,1,1.3,0l11.77,6.8c.36.21.37.54,0,.75Z" transform="translate(-36.3 -38.66)"/><path class="cls-4" d="M125,113.49a1.42,1.42,0,0,1-.65,1.12L81.22,139.54c-.36.2-.66,0-.66-.37V90.25a1.45,1.45,0,0,1,.66-1.12L124.39,64.2c.36-.2.65,0,.65.37Z" transform="translate(-36.3 -38.66)"/><path d="M123.73,112.77a1.45,1.45,0,0,1-.65,1.12l-11.78,6.79c-.36.21-.65,0-.65-.36V107a1.42,1.42,0,0,1,.65-1.12l11.78-6.8c.36-.21.65,0,.65.36Z" transform="translate(-36.3 -38.66)"/><path d="M109.34,121.07a1.42,1.42,0,0,1-.65,1.12L96.91,129c-.36.21-.65,0-.65-.36V115.28a1.45,1.45,0,0,1,.65-1.12l11.78-6.79c.36-.21.65-.05.65.36Z" transform="translate(-36.3 -38.66)"/><path d="M95,129.38a1.43,1.43,0,0,1-.65,1.12l-11.78,6.8c-.36.21-.65,0-.65-.36V123.59a1.43,1.43,0,0,1,.65-1.12l11.78-6.79c.36-.21.65-.05.65.36Z" transform="translate(-36.3 -38.66)"/><path d="M123.73,96.46a1.43,1.43,0,0,1-.65,1.12l-11.78,6.79c-.36.21-.65,0-.65-.36V90.67a1.43,1.43,0,0,1,.65-1.12l11.78-6.8c.36-.21.65,0,.65.36Z" transform="translate(-36.3 -38.66)"/><path d="M109.34,104.77a1.45,1.45,0,0,1-.65,1.12l-11.78,6.79c-.36.21-.65,0-.65-.36V99a1.42,1.42,0,0,1,.65-1.12l11.78-6.8c.36-.21.65,0,.65.36Z" transform="translate(-36.3 -38.66)"/><path d="M95,113.07a1.42,1.42,0,0,1-.65,1.12L82.52,121c-.36.21-.65,0-.65-.36V107.28a1.45,1.45,0,0,1,.65-1.12L94.3,99.37c.36-.21.65-.05.65.36Z" transform="translate(-36.3 -38.66)"/><path d="M123.73,80.15a1.43,1.43,0,0,1-.65,1.12l-11.78,6.8c-.36.2-.65,0-.65-.37V74.36a1.43,1.43,0,0,1,.65-1.12l11.78-6.8c.36-.21.65,0,.65.37Z" transform="translate(-36.3 -38.66)"/><path d="M109.34,88.46a1.45,1.45,0,0,1-.65,1.12L96.91,96.37c-.36.21-.65,0-.65-.36V82.67a1.43,1.43,0,0,1,.65-1.12l11.78-6.8c.36-.21.65,0,.65.36Z" transform="translate(-36.3 -38.66)"/><path d="M95,96.77a1.42,1.42,0,0,1-.65,1.11l-11.78,6.8c-.36.21-.65,0-.65-.36V91a1.42,1.42,0,0,1,.65-1.11l11.78-6.8c.36-.21.65,0,.65.36Z" transform="translate(-36.3 -38.66)"/><path class="cls-5" d="M80.78,138.87c0,.41-.29.57-.65.37L37,114.31a1.45,1.45,0,0,1-.66-1.12V64.27c0-.41.3-.58.66-.37L80.13,88.83A1.42,1.42,0,0,1,80.78,90Z" transform="translate(-36.3 -38.66)"/><path d="M79.47,136.63c0,.41-.29.57-.65.37L67,130.2a1.43,1.43,0,0,1-.65-1.12V115.74c0-.41.29-.57.65-.37l11.78,6.8a1.43,1.43,0,0,1,.65,1.12Z" transform="translate(-36.3 -38.66)"/><path d="M65.08,128.33c0,.4-.29.57-.65.36l-11.78-6.8a1.43,1.43,0,0,1-.65-1.12V107.43c0-.41.29-.57.65-.36l11.78,6.79a1.43,1.43,0,0,1,.65,1.12Z" transform="translate(-36.3 -38.66)"/><path d="M50.69,120c0,.41-.29.57-.65.36l-11.78-6.8a1.42,1.42,0,0,1-.65-1.12V99.12c0-.41.29-.57.65-.36L50,105.55a1.45,1.45,0,0,1,.65,1.12Z" transform="translate(-36.3 -38.66)"/><path d="M79.47,120.32c0,.41-.29.58-.65.37L67,113.89a1.43,1.43,0,0,1-.65-1.12V99.43c0-.41.29-.57.65-.37l11.78,6.8a1.43,1.43,0,0,1,.65,1.12Z" transform="translate(-36.3 -38.66)"/><path d="M65.08,112c0,.4-.29.57-.65.36l-11.78-6.8a1.42,1.42,0,0,1-.65-1.12V91.12c0-.41.29-.57.65-.36l11.78,6.79a1.45,1.45,0,0,1,.65,1.12Z" transform="translate(-36.3 -38.66)"/><path d="M50.69,103.71c0,.41-.29.57-.65.36l-11.78-6.8a1.42,1.42,0,0,1-.65-1.11V82.81c0-.41.29-.57.65-.36L50,89.25a1.42,1.42,0,0,1,.65,1.12Z" transform="translate(-36.3 -38.66)"/><path d="M79.47,104c0,.4-.29.57-.65.36L67,97.58a1.43,1.43,0,0,1-.65-1.12V83.12c0-.41.29-.57.65-.36l11.78,6.79a1.43,1.43,0,0,1,.65,1.12Z" transform="translate(-36.3 -38.66)"/><path d="M65.08,95.71c0,.41-.29.57-.65.36l-11.78-6.8A1.42,1.42,0,0,1,52,88.16V74.81c0-.41.29-.57.65-.36l11.78,6.8a1.42,1.42,0,0,1,.65,1.11Z" transform="translate(-36.3 -38.66)"/><path d="M50.69,87.4c0,.41-.29.57-.65.36L38.26,81a1.45,1.45,0,0,1-.65-1.12V66.5c0-.4.29-.57.65-.36L50,72.94a1.43,1.43,0,0,1,.65,1.12Z" transform="translate(-36.3 -38.66)"/></g><text class="cls-6" transform="translate(98.47 54.97)">MARK</text><text class="cls-7" transform="translate(98.47 75.55)">OUR<tspan class="cls-8" x="36.62" y="0"> </tspan><tspan class="cls-9" x="39.26" y="0">W</tspan><tspan x="56.45" y="0">ORDS</tspan></text></g></g></g></svg>